<svg width="59" height="80" viewBox="0 0 59 80" fill="none" xmlns="http://www.w3.org/2000/svg">
<g id="Logo">
<path d="M57.811 43.1426C58.6913 44.855 56.4465 47.3214 54.5212 47.3214C47.9476 47.3214 42.5594 52.3972 42.0623 58.8433C42.0607 58.8628 42.0445 58.8781 42.0248 58.8781C42.0052 58.8781 41.989 58.8628 41.9874 58.8433C41.4903 52.3972 36.1021 47.3214 29.5286 47.3214C22.955 47.3214 17.5668 52.3972 17.0697 58.8433C17.0682 58.8628 17.0519 58.8781 17.0322 58.8781C17.0126 58.8781 16.9963 58.8628 16.9948 58.8433C16.4977 52.3972 11.1096 47.3214 4.53595 47.3214C2.6106 47.3214 0.365723 44.8549 1.24603 43.1426L20.6349 5.42786C24.3555 -1.80929 34.7015 -1.80929 38.4221 5.42788L57.811 43.1426Z" fill="#5A7684"/>
<path d="M0 79.3738H3.14001V75.2338C3.14001 73.6138 3.12 72.3738 2.94 71.2738L6.06 79.3738H9.02002L12.16 71.2738C12 72.3738 12 73.0738 12 76.2738V79.3738H15.14V64.5738H11.96L7.54004 75.6138L3.14001 64.5738H0V79.3738Z" fill="#5A7684"/>
<path fill-rule="evenodd" clip-rule="evenodd" d="M17.3027 74.3538C17.3027 77.4338 19.4627 79.6338 22.4827 79.6338C25.2227 79.6338 27.2027 78.2138 27.5627 75.9938H24.7427C24.5227 76.7138 23.7027 77.1338 22.5427 77.1338C21.1827 77.1338 20.4427 76.5138 20.2627 75.1938L27.5227 75.1538V74.3738C27.5227 71.1138 25.5627 69.0538 22.4227 69.0538C19.4026 69.0538 17.3027 71.2338 17.3027 74.3538ZM20.3027 73.2938C20.5427 72.0938 21.2227 71.5538 22.4427 71.5538C23.6827 71.5538 24.4627 72.2338 24.4627 73.2938H20.3027Z" fill="#5A7684"/>
<path d="M29.3466 79.3738H32.4266V74.0138C32.4266 72.3338 33.3266 71.8538 34.2066 71.8538C35.1866 71.8538 35.8266 72.4538 35.8266 73.6938V79.3738H38.9066V74.0138C38.9066 72.3138 39.7866 71.8338 40.6666 71.8338C41.6465 71.8338 42.3066 72.4338 42.3066 73.6938V79.3738H45.3865V72.8338C45.3865 70.5538 44.1066 69.0538 41.5266 69.0538C40.0866 69.0538 38.9066 69.7538 38.3865 70.8138C37.8066 69.7538 36.8466 69.0538 35.3466 69.0538C33.9066 69.0538 32.9266 69.7138 32.4266 70.4138L32.2266 69.3738H29.3466V79.3738Z" fill="#5A7684"/>
<path fill-rule="evenodd" clip-rule="evenodd" d="M52.5688 69.0738C49.3687 69.0738 47.0488 71.1938 47.0488 74.3538C47.0488 77.5138 49.3687 79.6138 52.5688 79.6138C55.7487 79.6138 58.0688 77.5138 58.0688 74.3538C58.0688 71.1938 55.7487 69.0738 52.5688 69.0738ZM52.5688 76.8538C51.1287 76.8538 50.1487 75.8538 50.1487 74.3338C50.1487 72.8338 51.1287 71.8338 52.5688 71.8338C53.9888 71.8338 54.9688 72.8338 54.9688 74.3338C54.9688 75.8538 53.9888 76.8538 52.5688 76.8538Z" fill="#5A7684"/>
</g>
</svg>
